<?xml version="1.0" encoding="utf-8"?>
<!-- Generator: Adobe Illustrator 12.0.1, SVG Export Plug-In . SVG Version: 6.00 Build 51448)  -->
<!DOCTYPE svg PUBLIC "-//W3C//DTD SVG 1.1//EN" "http://www.w3.org/Graphics/SVG/1.1/DTD/svg11.dtd" [
	<!ENTITY ns_flows "http://ns.adobe.com/Flows/1.0/">
	<!ENTITY ns_extend "http://ns.adobe.com/Extensibility/1.0/">
	<!ENTITY ns_ai "http://ns.adobe.com/AdobeIllustrator/10.0/">
	<!ENTITY ns_graphs "http://ns.adobe.com/Graphs/1.0/">
	<!ENTITY ns_svg "http://www.w3.org/2000/svg">
	<!ENTITY ns_xlink "http://www.w3.org/1999/xlink">
]>
<svg  version="1.1" xmlns:x="&ns_extend;" xmlns:i="&ns_ai;" xmlns:graph="&ns_graphs;"
	 xmlns="&ns_svg;" xmlns:xlink="&ns_xlink;" xmlns:a="http://ns.adobe.com/AdobeSVGViewerExtensions/3.0/"
	 width="190.552" height="126.183" viewBox="0 0 190.552 126.183" overflow="visible" enable-background="new 0 0 190.552 126.183"
	 xml:space="preserve">
<g id="Layer_1">
</g>
<g id="Layer_3">
</g>
<g id="Layer_2">
	<g>
		<path fill="#0A50A1" d="M17.625,36.51v64.125H0V36.51H17.625z"/>
		<path fill="#0A50A1" d="M49.03,83.098v18.148c-1.441,0.258-2.758,0.389-3.949,0.389c-7.051,0-12.926-2.316-17.625-6.951
			c-4.701-4.633-7.051-10.441-7.051-17.424c0-6.793,2.371-12.555,7.113-17.283c4.742-4.727,10.508-7.092,17.301-7.092
			c7.574,0,13.543,2.219,17.91,6.652s6.551,10.49,6.551,18.168v22.93H51.655V78.973c0-2.5-0.6-4.492-1.795-5.98
			s-2.803-2.232-4.822-2.232c-1.834,0-3.418,0.676-4.754,2.023S38.28,75.73,38.28,77.58c0,1.945,0.609,3.545,1.83,4.799
			s2.77,1.881,4.648,1.881C46.292,84.26,47.715,83.873,49.03,83.098z"/>
		<path fill="#ABDA4D" d="M173.177,77.176c0-1.879-0.627-3.428-1.881-4.648s-2.854-1.83-4.799-1.83c-1.85,0-3.449,0.668-4.797,2.004
			s-2.023,2.92-2.023,4.754c0,2.02,0.744,3.627,2.232,4.822s3.48,1.795,5.98,1.795h21.662v17.625h-22.93
			c-7.678,0-13.734-2.184-18.168-6.551s-6.652-10.336-6.652-17.911c0-6.793,2.365-12.559,7.092-17.301
			c4.729-4.742,10.49-7.113,17.283-7.113c6.982,0,12.791,2.35,17.424,7.051c4.635,4.699,6.951,10.574,6.951,17.625
			c0,1.191-0.131,2.508-0.389,3.949h-18.148C172.79,80.133,173.177,78.709,173.177,77.176z"/>
		<path fill="#0A50A1" d="M138.991,100.635h-17.625V75.406c0-1.934-0.199-3.273-0.596-4.023c-0.396-0.748-1.113-1.123-2.148-1.123
			c-1.922,0-2.881,1.732-2.881,5.193v25.182H98.116V75.406c0-1.934-0.211-3.273-0.631-4.023c-0.422-0.748-1.162-1.123-2.221-1.123
			c-1.934,0-2.898,1.732-2.898,5.193v25.182H74.741V71.844c0-5.27,1.771-9.746,5.316-13.432c3.545-3.684,7.844-5.527,12.895-5.527
			c5.207,0,9.883,2.209,14.023,6.627c4.594-4.418,9.188-6.627,13.781-6.627c5.844,0,10.531,2.133,14.063,6.396
			c2.781,3.324,4.172,8.168,4.172,14.531V100.635z"/>
		<circle fill="#ABDA4D" cx="148.081" cy="33.369" r="19.898"/>
		<circle fill="#ABDA4D" cx="111.165" cy="16.952" r="16.952"/>
		<circle fill="#ABDA4D" cx="77.164" cy="23.953" r="14.731"/>
		<circle fill="#ABDA4D" cx="56.581" cy="41.869" r="9.897"/>
		<circle fill="#ABDA4D" cx="54.665" cy="110.119" r="6.564"/>
		<circle fill="#ABDA4D" cx="63.581" cy="120.952" r="5.231"/>
		<g>
			<path fill="#0A50A1" d="M147.879,111.302h-5.042c-0.014,0.111-0.021,0.223-0.021,0.333c0,0.713,0.255,1.318,0.765,1.813
				s1.113,0.744,1.809,0.744c0.812,0,1.605-0.317,2.379-0.953v0.771c-0.733,0.564-1.554,0.847-2.463,0.847
				c-0.923,0-1.686-0.319-2.289-0.958s-0.904-1.452-0.904-2.438c0-0.936,0.278-1.71,0.834-2.324c0.557-0.614,1.257-0.92,2.101-0.92
				c0.793,0,1.463,0.277,2.01,0.831C147.606,109.6,147.879,110.352,147.879,111.302z M142.928,110.755h4.146
				c-0.241-1.25-0.916-1.875-2.025-1.875c-0.524,0-0.978,0.164-1.36,0.491C143.307,109.699,143.053,110.16,142.928,110.755z"/>
			<path fill="#0A50A1" d="M149.926,108.341v1.109h0.028c0.533-0.823,1.234-1.234,2.104-1.234c0.722,0,1.299,0.231,1.729,0.695
				c0.431,0.463,0.646,1.104,0.646,1.924v3.897h-0.68v-3.642c0-1.473-0.579-2.21-1.737-2.21c-0.848,0-1.545,0.457-2.091,1.369v4.482
				h-0.68v-6.391H149.926z"/>
			<path fill="#0A50A1" d="M160.741,108.528v0.758c-0.611-0.271-1.165-0.406-1.66-0.406c-0.713,0-1.293,0.248-1.74,0.744
				s-0.67,1.14-0.67,1.933c0,0.807,0.224,1.448,0.67,1.922c0.447,0.476,1.045,0.713,1.795,0.713c0.546,0,1.12-0.122,1.722-0.367
				v0.711c-0.64,0.213-1.232,0.32-1.779,0.32c-0.936,0-1.692-0.296-2.27-0.889c-0.577-0.593-0.865-1.371-0.865-2.334
				c0-1.005,0.291-1.826,0.873-2.462s1.324-0.955,2.228-0.955C159.541,108.216,160.106,108.32,160.741,108.528z"/>
			<path fill="#0A50A1" d="M165.142,108.216c0.927,0,1.7,0.317,2.319,0.952s0.928,1.426,0.928,2.375c0,0.945-0.31,1.733-0.928,2.365
				c-0.619,0.632-1.392,0.948-2.319,0.948c-0.927,0-1.702-0.316-2.326-0.948c-0.624-0.632-0.935-1.42-0.935-2.365
				c0-0.949,0.312-1.741,0.935-2.375S164.215,108.216,165.142,108.216z M165.142,114.192c0.718,0,1.317-0.251,1.798-0.754
				s0.722-1.135,0.722-1.895c0-0.755-0.242-1.388-0.726-1.898c-0.484-0.51-1.082-0.765-1.795-0.765
				c-0.722,0-1.325,0.253-1.809,0.758c-0.484,0.505-0.726,1.141-0.726,1.905c0,0.76,0.242,1.392,0.726,1.895
				C163.816,113.941,164.419,114.192,165.142,114.192z"/>
			<path fill="#0A50A1" d="M175.395,105.021v9.711h-0.688v-0.498c-0.584,0.415-1.215,0.623-1.892,0.623
				c-0.909,0-1.675-0.321-2.298-0.962c-0.624-0.642-0.936-1.43-0.936-2.365c0-0.949,0.307-1.739,0.921-2.369
				s1.385-0.945,2.312-0.945c0.589,0,1.219,0.17,1.892,0.511v-3.707H175.395z M174.707,113.608v-4.131
				c-0.611-0.398-1.232-0.598-1.862-0.598c-0.736,0-1.343,0.245-1.82,0.733c-0.478,0.489-0.716,1.114-0.716,1.874
				c0,0.774,0.255,1.419,0.764,1.933c0.51,0.515,1.146,0.772,1.911,0.772C173.577,114.192,174.151,113.998,174.707,113.608z"/>
			<path fill="#0A50A1" d="M182.589,111.302h-5.041c-0.014,0.111-0.021,0.223-0.021,0.333c0,0.713,0.255,1.318,0.765,1.813
				s1.113,0.744,1.809,0.744c0.812,0,1.605-0.317,2.379-0.953v0.771c-0.732,0.564-1.553,0.847-2.462,0.847
				c-0.923,0-1.686-0.319-2.289-0.958s-0.904-1.452-0.904-2.438c0-0.936,0.278-1.71,0.834-2.324c0.557-0.614,1.257-0.92,2.101-0.92
				c0.793,0,1.463,0.277,2.01,0.831S182.589,110.352,182.589,111.302z M177.638,110.755h4.146c-0.241-1.25-0.916-1.875-2.025-1.875
				c-0.524,0-0.978,0.164-1.36,0.491C178.017,109.699,177.763,110.16,177.638,110.755z"/>
			<path fill="#0A50A1" d="M189.472,105.021v9.711h-0.688v-0.498c-0.584,0.415-1.215,0.623-1.892,0.623
				c-0.908,0-1.675-0.321-2.298-0.962c-0.624-0.642-0.936-1.43-0.936-2.365c0-0.949,0.307-1.739,0.922-2.369
				c0.613-0.63,1.385-0.945,2.312-0.945c0.589,0,1.22,0.17,1.892,0.511v-3.707H189.472z M188.784,113.608v-4.131
				c-0.611-0.398-1.232-0.598-1.862-0.598c-0.736,0-1.344,0.245-1.82,0.733c-0.478,0.489-0.716,1.114-0.716,1.874
				c0,0.774,0.255,1.419,0.765,1.933c0.509,0.515,1.146,0.772,1.91,0.772C187.653,114.192,188.229,113.998,188.784,113.608z"/>
		</g>
	</g>
</g>
</svg>
