<?xml version="1.0" encoding="utf-8"?>
<!-- Generator: Adobe Illustrator 12.0.0, SVG Export Plug-In . SVG Version: 6.00 Build 51448)  -->
<!DOCTYPE svg PUBLIC "-//W3C//DTD SVG 1.1//EN" "http://www.w3.org/Graphics/SVG/1.1/DTD/svg11.dtd" [
	<!ENTITY ns_svg "http://www.w3.org/2000/svg">
	<!ENTITY ns_xlink "http://www.w3.org/1999/xlink">
]>
<svg  version="1.1" id="Layer_1" xmlns="&ns_svg;" xmlns:xlink="&ns_xlink;" width="506.552" height="335.437"
	 viewBox="0 0 506.552 335.437" overflow="visible" enable-background="new 0 0 506.552 335.437" xml:space="preserve">
<g>
	<path fill="#0071B5" d="M46.853,97.056v170.466H0V97.056H46.853z"/>
	<path fill="#0071B5" d="M130.338,220.902v48.244c-3.832,0.686-7.331,1.033-10.499,1.033c-18.743,0-34.361-6.157-46.853-18.479
		c-12.498-12.315-18.744-27.757-18.744-46.318c0-18.058,6.303-33.375,18.91-45.945c12.606-12.564,27.934-18.852,45.991-18.852
		c20.135,0,36.002,5.898,47.611,17.684c11.61,11.786,17.415,27.886,17.415,48.296v60.955h-46.854v-57.585
		c0-6.646-1.594-11.942-4.771-15.898c-3.177-3.956-7.451-5.935-12.819-5.935c-4.875,0-9.086,1.797-12.637,5.379
		c-3.551,3.583-5.327,7.835-5.327,12.752c0,5.171,1.62,9.424,4.865,12.757c3.245,3.333,7.363,5,12.357,5
		C123.059,223.991,126.844,222.963,130.338,220.902z"/>
	<path fill="#B4D26E" d="M460.363,205.159c0-4.994-1.667-9.111-5-12.356c-3.334-3.245-7.586-4.865-12.757-4.865
		c-4.917,0-9.17,1.775-12.752,5.327c-3.583,3.552-5.379,7.762-5.379,12.638c0,5.368,1.979,9.642,5.935,12.819
		c3.956,3.177,9.252,4.771,15.897,4.771h57.586v46.855h-60.955c-20.41,0-36.511-5.805-48.297-17.414s-17.684-27.479-17.684-47.614
		c0-18.058,6.287-33.385,18.852-45.991c12.57-12.606,27.887-18.91,45.945-18.91c18.562,0,34.003,6.246,46.318,18.744
		c12.32,12.492,18.479,28.109,18.479,46.854c0,3.167-0.348,6.666-1.033,10.498h-48.245
		C459.335,213.021,460.363,209.235,460.363,205.159z"/>
	<path fill="#0071B5" d="M369.486,267.521h-46.854v-67.065c0-5.141-0.529-8.702-1.584-10.696c-1.054-1.988-2.959-2.985-5.711-2.985
		c-5.108,0-7.658,4.605-7.658,13.806v66.941h-46.854v-67.065c0-5.141-0.561-8.702-1.677-10.696c-1.122-1.988-3.09-2.985-5.903-2.985
		c-5.141,0-7.706,4.605-7.706,13.806v66.941h-46.853v-76.536c0-14.009,4.709-25.909,14.133-35.706
		c9.423-9.792,20.851-14.693,34.278-14.693c13.842,0,26.273,5.872,37.281,17.617c12.212-11.745,24.423-17.617,36.635-17.617
		c15.535,0,27.996,5.669,37.383,17.004c7.394,8.837,11.091,21.713,11.091,38.629V267.521z"/>
	<circle fill="#B4D26E" cx="393.65" cy="88.707" r="52.897"/>
	<circle fill="#B4D26E" cx="295.513" cy="45.064" r="45.064"/>
	<circle fill="#B4D26E" cx="205.129" cy="63.674" r="39.16"/>
	<circle fill="#B4D26E" cx="150.411" cy="111.303" r="26.31"/>
	<circle fill="#B4D26E" cx="145.317" cy="292.731" r="17.449"/>
	<circle fill="#B4D26E" cx="169.019" cy="321.532" r="13.906"/>
	<g>
		<path fill="#0071B5" d="M379.715,295.874c-0.53,4.353,2.914,7.683,6.774,7.683c2.271,0,4.125-0.757,6.32-2.535v2.043
			c-2.006,1.552-4.087,2.271-6.547,2.271c-4.921,0-8.479-3.785-8.479-9.046c0-4.996,3.293-8.629,7.797-8.629
			c3.633,0,7.531,2.535,7.531,8.213H379.715z M390.955,294.397c-0.644-3.33-2.46-4.958-5.374-4.958c-2.801,0-4.996,1.854-5.64,4.958
			H390.955z"/>
		<path fill="#0071B5" d="M398.562,290.954h0.076c1.589-2.385,3.141-3.293,5.602-3.293c3.633,0,6.32,2.384,6.32,6.964v10.37h-1.817
			v-9.689c0-3.822-1.627-5.866-4.617-5.866c-2.46,0-4.05,1.174-5.563,3.634v11.922h-1.816v-16.993h1.816V290.954z"/>
		<path fill="#0071B5" d="M427.287,290.499c-1.968-0.832-2.989-1.06-4.428-1.06c-3.785,0-6.396,2.877-6.396,7.115
			c0,4.277,2.536,7.002,6.548,7.002c1.552,0,2.688-0.227,4.58-0.983v1.892c-1.931,0.644-3.142,0.871-4.731,0.871
			c-4.996,0-8.326-3.444-8.326-8.592c0-5.336,3.406-9.083,8.251-9.083c1.476,0,2.611,0.227,4.503,0.832V290.499z"/>
		<path fill="#0071B5" d="M438.982,305.336c-4.958,0-8.667-3.785-8.667-8.818c0-5.072,3.709-8.856,8.667-8.856
			s8.629,3.784,8.629,8.856C447.611,301.551,443.94,305.336,438.982,305.336z M438.982,289.439c-3.86,0-6.737,2.99-6.737,7.078
			c0,4.05,2.877,7.039,6.737,7.039c3.822,0,6.699-2.989,6.699-7.039S442.805,289.439,438.982,289.439z"/>
		<path fill="#0071B5" d="M466.231,304.995h-1.816v-1.324c-1.816,1.248-3.104,1.665-5.033,1.665c-4.845,0-8.592-3.86-8.592-8.856
			c0-5.071,3.634-8.818,8.592-8.818c1.74,0,2.952,0.341,5.033,1.362v-9.841h1.816V304.995z M464.415,291.029
			c-1.854-1.173-3.179-1.59-4.958-1.59c-3.937,0-6.736,2.877-6.736,6.927c0,4.125,3.027,7.19,7.115,7.19
			c1.703,0,2.838-0.378,4.579-1.552V291.029z"/>
		<path fill="#0071B5" d="M471.984,295.874c-0.53,4.353,2.914,7.683,6.774,7.683c2.271,0,4.125-0.757,6.32-2.535v2.043
			c-2.006,1.552-4.087,2.271-6.547,2.271c-4.921,0-8.479-3.785-8.479-9.046c0-4.996,3.293-8.629,7.797-8.629
			c3.633,0,7.531,2.535,7.531,8.213H471.984z M483.225,294.397c-0.644-3.33-2.46-4.958-5.374-4.958c-2.801,0-4.996,1.854-5.64,4.958
			H483.225z"/>
		<path fill="#0071B5" d="M503.662,304.995h-1.816v-1.324c-1.816,1.248-3.104,1.665-5.033,1.665c-4.845,0-8.592-3.86-8.592-8.856
			c0-5.071,3.634-8.818,8.592-8.818c1.74,0,2.952,0.341,5.033,1.362v-9.841h1.816V304.995z M501.846,291.029
			c-1.854-1.173-3.179-1.59-4.958-1.59c-3.937,0-6.736,2.877-6.736,6.927c0,4.125,3.027,7.19,7.115,7.19
			c1.703,0,2.838-0.378,4.579-1.552V291.029z"/>
	</g>
</g>
</svg>
