<?xml version="1.0" encoding="utf-8"?>
<!-- Generator: Adobe Illustrator 12.0.0, SVG Export Plug-In . SVG Version: 6.00 Build 51448)  -->
<!DOCTYPE svg PUBLIC "-//W3C//DTD SVG 1.1//EN" "http://www.w3.org/Graphics/SVG/1.1/DTD/svg11.dtd" [
	<!ENTITY ns_svg "http://www.w3.org/2000/svg">
	<!ENTITY ns_xlink "http://www.w3.org/1999/xlink">
]>
<svg  version="1.1" id="Layer_1" xmlns="&ns_svg;" xmlns:xlink="&ns_xlink;" width="246.182" height="313.28"
	 viewBox="0 0 246.182 313.28" overflow="visible" enable-background="new 0 0 246.182 313.28" xml:space="preserve">
<g>
	<path fill="#B4D670" d="M158.441,122.983c0-9.488-3.167-17.31-9.499-23.475c-6.332-6.164-14.41-9.242-24.234-9.242
		c-9.34,0-17.417,3.373-24.224,10.12c-6.805,6.747-10.218,14.746-10.218,24.007c0,10.199,3.758,18.316,11.273,24.352
		s17.576,9.064,30.2,9.064h109.393v89.004H125.34c-38.771,0-69.357-11.026-91.746-33.081C11.205,191.679,0,161.537,0,123.288
		c0-34.304,11.944-63.419,35.813-87.367C59.691,11.974,88.788,0,123.091,0c35.261,0,64.593,11.865,87.989,35.605
		c23.404,23.731,35.102,53.399,35.102,89.004c0,6.017-0.66,12.665-1.962,19.944h-91.647
		C156.487,137.915,158.441,130.725,158.441,122.983z"/>
	<g>
		<path fill="#0071BC" d="M5.241,295.306C4.234,303.574,10.777,309.9,18.11,309.9c4.314,0,7.837-1.438,12.007-4.816v3.882
			c-3.811,2.948-7.765,4.314-12.438,4.314c-9.347,0-16.104-7.19-16.104-17.184c0-9.49,6.255-16.392,14.811-16.392
			c6.902,0,14.307,4.816,14.307,15.601H5.241z M26.594,292.502c-1.222-6.327-4.673-9.418-10.209-9.418
			c-5.32,0-9.49,3.522-10.713,9.418H26.594z"/>
		<path fill="#0071BC" d="M41.044,285.96h0.144c3.02-4.53,5.967-6.255,10.641-6.255c6.902,0,12.006,4.529,12.006,13.229v19.699
			h-3.451v-18.405c0-7.262-3.092-11.144-8.771-11.144c-4.673,0-7.693,2.229-10.568,6.901v22.647h-3.451v-32.281h3.451V285.96z"/>
		<path fill="#0071BC" d="M95.613,285.097c-3.739-1.582-5.68-2.013-8.412-2.013c-7.189,0-12.15,5.464-12.15,13.516
			c0,8.125,4.817,13.301,12.438,13.301c2.948,0,5.105-0.431,8.7-1.869v3.595c-3.667,1.223-5.967,1.654-8.987,1.654
			c-9.49,0-15.817-6.543-15.817-16.32c0-10.138,6.471-17.255,15.673-17.255c2.804,0,4.961,0.431,8.556,1.581V285.097z"/>
		<path fill="#0071BC" d="M117.828,313.28c-9.418,0-16.464-7.19-16.464-16.752c0-9.634,7.046-16.823,16.464-16.823
			c9.418,0,16.392,7.189,16.392,16.823C134.22,306.09,127.246,313.28,117.828,313.28z M117.828,283.084
			c-7.333,0-12.798,5.68-12.798,13.444c0,7.692,5.464,13.372,12.798,13.372c7.261,0,12.726-5.68,12.726-13.372
			C130.554,288.835,125.089,283.084,117.828,283.084z"/>
		<path fill="#0071BC" d="M169.593,312.633h-3.451v-2.517c-3.451,2.373-5.896,3.164-9.563,3.164c-9.202,0-16.32-7.334-16.32-16.824
			c0-9.634,6.902-16.751,16.32-16.751c3.308,0,5.608,0.646,9.563,2.588V263.6h3.451V312.633z M166.142,286.104
			c-3.522-2.229-6.039-3.02-9.418-3.02c-7.478,0-12.798,5.464-12.798,13.156c0,7.837,5.752,13.66,13.517,13.66
			c3.235,0,5.392-0.719,8.699-2.947V286.104z"/>
		<path fill="#0071BC" d="M180.521,295.306c-1.007,8.269,5.535,14.595,12.869,14.595c4.313,0,7.836-1.438,12.006-4.816v3.882
			c-3.811,2.948-7.765,4.314-12.438,4.314c-9.347,0-16.104-7.19-16.104-17.184c0-9.49,6.255-16.392,14.811-16.392
			c6.901,0,14.307,4.816,14.307,15.601H180.521z M201.874,292.502c-1.223-6.327-4.673-9.418-10.209-9.418
			c-5.32,0-9.49,3.522-10.713,9.418H201.874z"/>
		<path fill="#0071BC" d="M240.697,312.633h-3.451v-2.517c-3.451,2.373-5.896,3.164-9.563,3.164c-9.202,0-16.32-7.334-16.32-16.824
			c0-9.634,6.902-16.751,16.32-16.751c3.308,0,5.608,0.646,9.563,2.588V263.6h3.451V312.633z M237.246,286.104
			c-3.522-2.229-6.039-3.02-9.418-3.02c-7.478,0-12.798,5.464-12.798,13.156c0,7.837,5.752,13.66,13.517,13.66
			c3.235,0,5.392-0.719,8.699-2.947V286.104z"/>
	</g>
	<g>
		<path fill="#FFFFFF" d="M94.314,169.117v55.5h-7.25v-55.5H94.314z"/>
		<path fill="#FFFFFF" d="M133.061,218.111v4.402c-2.875,1.902-5.205,2.854-6.995,2.854c-3.037,0-4.881-1.252-5.529-3.76
			c-3.145,2.508-6.426,3.76-9.842,3.76c-2.602,0-4.744-0.879-6.424-2.641c-1.682-1.762-2.521-3.861-2.521-6.299
			c0-3.195,1.328-5.77,3.986-7.721c1.572-1.082,4.393-2.355,8.461-3.818l6.428-2.275v-1.951c0-4.279-2.197-6.42-6.59-6.42
			c-4.34,0-8.191,1.992-11.555,5.977v-7.891c2.82-3.307,6.863-4.961,12.127-4.961c3.906,0,7.055,0.982,9.441,2.943
			c2.551,2.127,3.827,5.18,3.827,9.16v18.891c0,1.254,0.459,1.881,1.377,1.881C130.063,220.242,131.332,219.533,133.061,218.111z
			 M120.625,217.229v-10.666c-3.875,1.305-6.578,2.443-8.105,3.42c-2.348,1.467-3.52,3.176-3.52,5.129
			c0,1.521,0.49,2.758,1.473,3.707s2.238,1.424,3.768,1.424C116.367,220.242,118.496,219.238,120.625,217.229z"/>
		<path fill="#FFFFFF" d="M139.226,188.117h7.25v4.783c3.676-3.688,7.219-5.533,10.627-5.533c4.758,0,8.381,2.197,10.869,6.59
			c3.893-4.393,7.949-6.59,12.168-6.59c3.676,0,6.609,1.303,8.801,3.904c2.189,2.604,3.285,6.074,3.285,10.41v22.936h-7.25v-22.592
			c0-2.654-0.729-4.768-2.186-6.34c-1.404-1.406-3.186-2.139-5.344-2.193c-2.375-0.055-5.074,1.49-8.096,4.633v26.492h-7.25v-22.674
			c0-5.633-2.188-8.451-6.559-8.451c-3.4,0-6.422,1.545-9.066,4.633v26.492h-7.25V188.117z"/>
		<path fill="#FFFFFF" d="M232.59,214.045v7.006c-4.285,2.879-9.137,4.316-14.559,4.316s-9.787-1.979-13.094-5.939
			c-3.09-3.688-4.635-8.191-4.635-13.508c0-5.533,1.588-10.008,4.766-13.426s7.293-5.127,12.346-5.127
			c4.996,0,8.854,1.658,11.57,4.971c2.879,3.477,4.318,8.529,4.318,15.154h-25.75c1.137,7.334,5.229,11,12.275,11
			C223.838,218.492,228.092,217.01,232.59,214.045z M207.553,202.742h18.5c-0.109-2.795-0.93-5.014-2.457-6.658
			s-3.574-2.467-6.139-2.467C211.891,193.617,208.588,196.66,207.553,202.742z"/>
	</g>
</g>
</svg>
