<?xml version="1.0" encoding="utf-8"?>
<!-- Generator: Adobe Illustrator 12.0.0, SVG Export Plug-In . SVG Version: 6.00 Build 51448)  -->
<!DOCTYPE svg PUBLIC "-//W3C//DTD SVG 1.1//EN" "http://www.w3.org/Graphics/SVG/1.1/DTD/svg11.dtd" [
	<!ENTITY ns_svg "http://www.w3.org/2000/svg">
	<!ENTITY ns_xlink "http://www.w3.org/1999/xlink">
]>
<svg  version="1.1" id="Layer_1" xmlns="&ns_svg;" xmlns:xlink="&ns_xlink;" width="246.182" height="246.813"
	 viewBox="0 0 246.182 246.813" overflow="visible" enable-background="new 0 0 246.182 246.813" xml:space="preserve">
<path fill="#B4D670" d="M158.441,122.983c0-9.488-3.167-17.31-9.499-23.475c-6.332-6.164-14.41-9.242-24.234-9.242
	c-9.34,0-17.417,3.373-24.224,10.12c-6.805,6.747-10.218,14.746-10.218,24.007c0,10.199,3.758,18.316,11.273,24.352
	s17.576,9.064,30.2,9.064h109.393v89.004H125.34c-38.771,0-69.357-11.025-91.746-33.08S0,161.537,0,123.288
	c0-34.304,11.944-63.419,35.813-87.367C59.691,11.974,88.788,0,123.091,0c35.261,0,64.593,11.865,87.989,35.605
	c23.404,23.731,35.102,53.399,35.102,89.004c0,6.017-0.66,12.665-1.963,19.944h-91.647
	C156.487,137.915,158.441,130.725,158.441,122.983z"/>
</svg>
